<?xml version="1.0" encoding="UTF-8"?>
<!DOCTYPE svg PUBLIC "-//W3C//DTD SVG 1.1//EN" "http://www.w3.org/Graphics/SVG/1.1/DTD/svg11.dtd">
<svg xmlns="http://www.w3.org/2000/svg" version="1.1" width="256px" height="256px" style="shape-rendering:geometricPrecision; text-rendering:geometricPrecision; image-rendering:optimizeQuality; fill-rule:evenodd; clip-rule:evenodd" xmlns:xlink="http://www.w3.org/1999/xlink">
<g><path style="opacity:0.066" fill="#000000" d="M 114.5,-0.5 C 123.167,-0.5 131.833,-0.5 140.5,-0.5C 162.745,-0.00663363 184.412,4.16003 205.5,12C 224.543,20.7094 237.71,34.8761 245,54.5C 251.535,74.1049 255.035,94.1049 255.5,114.5C 255.5,123.167 255.5,131.833 255.5,140.5C 255.011,162.749 250.844,184.415 243,205.5C 234.291,224.543 220.124,237.71 200.5,245C 180.86,251.349 160.86,254.849 140.5,255.5C 131.833,255.5 123.167,255.5 114.5,255.5C 91.4597,255.1 69.1264,250.6 47.5,242C 29.3991,233.232 16.8991,219.399 10,200.5C 3.55986,181.221 0.0598648,161.554 -0.5,141.5C -0.5,132.167 -0.5,122.833 -0.5,113.5C 0.0258936,92.3578 3.85923,71.6911 11,51.5C 21.2271,28.1298 38.7271,13.2964 63.5,7C 80.3935,2.77621 97.3935,0.276205 114.5,-0.5 Z"/></g>
<g><path style="opacity:1" fill="#9f4895" d="M 233.5,51.5 C 233.762,52.9778 233.429,54.3112 232.5,55.5C 230.816,52.0728 229.149,48.7394 227.5,45.5C 221.405,32.2381 211.739,22.4047 198.5,16C 175.612,7.51582 151.946,4.01582 127.5,5.5C 104.955,4.32037 82.9552,7.1537 61.5,14C 45.8026,19.8667 34.4692,30.3667 27.5,45.5C 25.9886,48.0051 24.6553,50.6717 23.5,53.5C 22.1667,53.5 21.5,52.8333 21.5,51.5C 27.3581,32.8055 39.3581,19.6388 57.5,12C 80.2063,4.42836 103.54,1.2617 127.5,2.5C 151.46,1.2617 174.794,4.42836 197.5,12C 215.642,19.6388 227.642,32.8055 233.5,51.5 Z"/></g>
<g><path style="opacity:1" fill="#9b3f90" d="M 227.5,45.5 C 205.66,45.1693 183.994,45.5027 162.5,46.5C 139.145,38.525 115.811,38.525 92.5,46.5C 71.0064,45.5027 49.3398,45.1693 27.5,45.5C 34.4692,30.3667 45.8026,19.8667 61.5,14C 82.9552,7.1537 104.955,4.32037 127.5,5.5C 151.946,4.01582 175.612,7.51582 198.5,16C 211.739,22.4047 221.405,32.2381 227.5,45.5 Z"/></g>
<g><path style="opacity:1" fill="#fefdfe" d="M 162.5,46.5 C 183.646,54.6441 197.979,69.3108 205.5,90.5C 206.159,93.4552 206.492,96.4552 206.5,99.5C 206.697,105.545 206.363,111.545 205.5,117.5C 204.342,120.989 203.009,124.322 201.5,127.5C 188.989,127.829 176.655,127.495 164.5,126.5C 169.081,121.42 168.415,117.42 162.5,114.5C 159.038,113.518 155.371,113.185 151.5,113.5C 151.5,107.167 151.5,100.833 151.5,94.5C 155.371,94.815 159.038,94.4816 162.5,93.5C 168.649,89.8921 168.983,85.7255 163.5,81C 159.179,80.501 154.846,80.3343 150.5,80.5C 150.666,76.1539 150.499,71.8206 150,67.5C 146,63.5 142,63.5 138,67.5C 137.501,71.8206 137.334,76.1539 137.5,80.5C 130.833,80.5 124.167,80.5 117.5,80.5C 117.666,76.4862 117.499,72.4862 117,68.5C 114.947,64.7084 111.781,63.5418 107.5,65C 106.667,65.8333 105.833,66.6667 105,67.5C 104.501,71.8206 104.334,76.1539 104.5,80.5C 100.154,80.3343 95.8206,80.501 91.5,81C 86.0172,85.7255 86.3505,89.8921 92.5,93.5C 95.9619,94.4816 99.6286,94.815 103.5,94.5C 103.5,100.833 103.5,107.167 103.5,113.5C 99.6286,113.185 95.9619,113.518 92.5,114.5C 86.7496,117.523 86.083,121.523 90.5,126.5C 78.3446,127.495 66.0113,127.829 53.5,127.5C 51.9914,124.322 50.658,120.989 49.5,117.5C 49.552,115.097 49.2186,112.764 48.5,110.5C 47.6158,100.807 48.9491,91.4741 52.5,82.5C 61.5638,65.9346 74.8971,53.9346 92.5,46.5C 115.811,38.525 139.145,38.525 162.5,46.5 Z"/></g>
<g><path style="opacity:1" fill="#973e8c" d="M 27.5,45.5 C 49.3398,45.1693 71.0064,45.5027 92.5,46.5C 74.8971,53.9346 61.5638,65.9346 52.5,82.5C 52.631,81.7611 52.4643,81.0944 52,80.5C 50.9326,81.1905 49.7659,81.6905 48.5,82C 47.1667,84.3333 45.8333,86.6667 44.5,89C 35.5062,89.4998 26.5062,89.6664 17.5,89.5C 18.2047,77.2717 20.2047,65.2717 23.5,53.5C 24.6553,50.6717 25.9886,48.0051 27.5,45.5 Z"/></g>
<g><path style="opacity:1" fill="#953d8b" d="M 162.5,46.5 C 183.994,45.5027 205.66,45.1693 227.5,45.5C 229.149,48.7394 230.816,52.0728 232.5,55.5C 233.429,54.3112 233.762,52.9778 233.5,51.5C 239.393,68.2016 242.06,85.5349 241.5,103.5C 240.485,112.634 239.485,121.634 238.5,130.5C 238.5,127.167 238.5,123.833 238.5,120.5C 230.804,120.831 223.138,120.497 215.5,119.5C 216.374,117.253 216.708,114.92 216.5,112.5C 215.5,112.5 214.5,112.5 213.5,112.5C 212.349,104.531 209.683,97.1973 205.5,90.5C 197.979,69.3108 183.646,54.6441 162.5,46.5 Z"/></g>
<g><path style="opacity:1" fill="#7a3271" d="M 162.5,93.5 C 162.167,93.5 161.833,93.5 161.5,93.5C 158.949,92.5156 156.282,91.5156 153.5,90.5C 151.248,87.1761 149.748,83.5094 149,79.5C 146.374,75.9281 143.374,75.5948 140,78.5C 138.795,82.6147 137.295,86.6147 135.5,90.5C 130.167,91.8333 124.833,91.8333 119.5,90.5C 117.705,86.6147 116.205,82.6147 115,78.5C 111.626,75.5948 108.626,75.9281 106,79.5C 105.138,82.9493 103.972,86.2826 102.5,89.5C 99.5879,91.24 96.5879,92.5733 93.5,93.5C 93.1667,93.5 92.8333,93.5 92.5,93.5C 86.3505,89.8921 86.0172,85.7255 91.5,81C 95.8206,80.501 100.154,80.3343 104.5,80.5C 104.334,76.1539 104.501,71.8206 105,67.5C 105.833,66.6667 106.667,65.8333 107.5,65C 111.781,63.5418 114.947,64.7084 117,68.5C 117.499,72.4862 117.666,76.4862 117.5,80.5C 124.167,80.5 130.833,80.5 137.5,80.5C 137.334,76.1539 137.501,71.8206 138,67.5C 142,63.5 146,63.5 150,67.5C 150.499,71.8206 150.666,76.1539 150.5,80.5C 154.846,80.3343 159.179,80.501 163.5,81C 168.983,85.7255 168.649,89.8921 162.5,93.5 Z"/></g>
<g><path style="opacity:1" fill="#8d3a83" d="M 21.5,51.5 C 21.5,52.8333 22.1667,53.5 23.5,53.5C 20.2047,65.2717 18.2047,77.2717 17.5,89.5C 26.5062,89.6664 35.5062,89.4998 44.5,89C 45.8333,86.6667 47.1667,84.3333 48.5,82C 49.7659,81.6905 50.9326,81.1905 52,80.5C 52.4643,81.0944 52.631,81.7611 52.5,82.5C 48.9491,91.4741 47.6158,100.807 48.5,110.5C 47.6805,107.695 47.1805,104.695 47,101.5C 42.2605,119.534 44.7605,136.034 54.5,151C 53.7203,152.073 53.887,153.24 55,154.5C 56.5,156 58,157.5 59.5,159C 58.5,159.333 57.5,159.667 56.5,160C 58.8333,162.333 61.1667,164.667 63.5,167C 49.1705,167.5 34.8372,167.667 20.5,167.5C 17.6223,155.475 16.1223,143.142 16,130.5C 15.9977,133.051 15.1644,135.051 13.5,136.5C 11.7999,112.7 12.9665,89.0338 17,65.5C 17.903,60.5245 19.403,55.8578 21.5,51.5 Z"/></g>
<g><path style="opacity:1" fill="#ccaac8" d="M 161.5,93.5 C 161.833,93.5 162.167,93.5 162.5,93.5C 159.038,94.4816 155.371,94.815 151.5,94.5C 151.5,100.833 151.5,107.167 151.5,113.5C 155.371,113.185 159.038,113.518 162.5,114.5C 158.5,114.5 154.5,114.5 150.5,114.5C 150.5,112.833 150.5,111.167 150.5,109.5C 150.5,104.167 150.5,98.8333 150.5,93.5C 154.167,93.5 157.833,93.5 161.5,93.5 Z"/></g>
<g><path style="opacity:1" fill="#8c3982" d="M 205.5,90.5 C 209.683,97.1973 212.349,104.531 213.5,112.5C 214.5,112.5 215.5,112.5 216.5,112.5C 216.708,114.92 216.374,117.253 215.5,119.5C 223.138,120.497 230.804,120.831 238.5,120.5C 238.5,123.833 238.5,127.167 238.5,130.5C 238.572,142.926 237.572,155.259 235.5,167.5C 220.83,167.667 206.163,167.5 191.5,167C 193.833,164.667 196.167,162.333 198.5,160C 197.5,159.667 196.5,159.333 195.5,159C 197.874,156.961 199.874,154.628 201.5,152C 201.167,151.667 200.833,151.333 200.5,151C 208.027,139.659 211.194,126.826 210,112.5C 209.885,107.756 208.718,103.422 206.5,99.5C 206.492,96.4552 206.159,93.4552 205.5,90.5 Z"/></g>
<g><path style="opacity:1" fill="#cbaac7" d="M 92.5,93.5 C 92.8333,93.5 93.1667,93.5 93.5,93.5C 97.1667,93.5 100.833,93.5 104.5,93.5C 104.5,98.8333 104.5,104.167 104.5,109.5C 104.5,111.167 104.5,112.833 104.5,114.5C 100.5,114.5 96.5,114.5 92.5,114.5C 95.9619,113.518 99.6286,113.185 103.5,113.5C 103.5,107.167 103.5,100.833 103.5,94.5C 99.6286,94.815 95.9619,94.4816 92.5,93.5 Z"/></g>
<g><path style="opacity:1" fill="#8c3b82" d="M 161.5,93.5 C 157.833,93.5 154.167,93.5 150.5,93.5C 150.5,98.8333 150.5,104.167 150.5,109.5C 146.389,120.952 150.389,126.619 162.5,126.5C 158.702,127.483 154.702,127.817 150.5,127.5C 150.666,131.846 150.499,136.179 150,140.5C 145.601,144.654 141.601,144.321 138,139.5C 137.501,135.514 137.334,131.514 137.5,127.5C 130.833,127.5 124.167,127.5 117.5,127.5C 117.809,132.267 117.309,136.934 116,141.5C 111.982,144.439 108.315,144.105 105,140.5C 104.501,136.179 104.334,131.846 104.5,127.5C 99.9677,127.818 95.6344,127.485 91.5,126.5C 104.289,127.248 108.622,121.581 104.5,109.5C 104.5,104.167 104.5,98.8333 104.5,93.5C 100.833,93.5 97.1667,93.5 93.5,93.5C 96.5879,92.5733 99.5879,91.24 102.5,89.5C 103.972,86.2826 105.138,82.9493 106,79.5C 108.626,75.9281 111.626,75.5948 115,78.5C 116.205,82.6147 117.705,86.6147 119.5,90.5C 124.833,91.8333 130.167,91.8333 135.5,90.5C 137.295,86.6147 138.795,82.6147 140,78.5C 143.374,75.5948 146.374,75.9281 149,79.5C 149.748,83.5094 151.248,87.1761 153.5,90.5C 156.282,91.5156 158.949,92.5156 161.5,93.5 Z"/></g>
<g><path style="opacity:1" fill="#fdfbfd" d="M 117.5,93.5 C 124.167,93.5 130.833,93.5 137.5,93.5C 137.5,100.167 137.5,106.833 137.5,113.5C 130.833,113.5 124.167,113.5 117.5,113.5C 117.5,106.833 117.5,100.167 117.5,93.5 Z"/></g>
<g><path style="opacity:1" fill="#85367c" d="M 206.5,99.5 C 208.718,103.422 209.885,107.756 210,112.5C 211.194,126.826 208.027,139.659 200.5,151C 200.833,151.333 201.167,151.667 201.5,152C 199.874,154.628 197.874,156.961 195.5,159C 196.5,159.333 197.5,159.667 198.5,160C 196.167,162.333 193.833,164.667 191.5,167C 206.163,167.5 220.83,167.667 235.5,167.5C 237.572,155.259 238.572,142.926 238.5,130.5C 239.485,121.634 240.485,112.634 241.5,103.5C 243.787,130.54 241.12,157.207 233.5,183.5C 232.022,183.238 230.689,183.571 229.5,184.5C 221.024,203.14 207.024,215.64 187.5,222C 175.715,225.29 163.715,227.29 151.5,228C 135.5,228.667 119.5,228.667 103.5,228C 81.8844,227.69 62.2177,221.69 44.5,210C 31.432,198.698 23.432,184.531 20.5,167.5C 34.8372,167.667 49.1705,167.5 63.5,167C 61.1667,164.667 58.8333,162.333 56.5,160C 57.5,159.667 58.5,159.333 59.5,159C 58,157.5 56.5,156 55,154.5C 53.887,153.24 53.7203,152.073 54.5,151C 44.7605,136.034 42.2605,119.534 47,101.5C 47.1805,104.695 47.6805,107.695 48.5,110.5C 49.2186,112.764 49.552,115.097 49.5,117.5C 49.085,135.195 55.7517,150.029 69.5,162C 79.9134,170.374 91.5801,176.374 104.5,180C 109.875,186.577 114.375,193.744 118,201.5C 123.031,207.676 128.364,208.009 134,202.5C 137.693,195.618 141.526,188.784 145.5,182C 163.993,177.34 179.827,168.173 193,154.5C 199.485,146.195 203.818,136.861 206,126.5C 206.805,123.304 206.638,120.304 205.5,117.5C 206.363,111.545 206.697,105.545 206.5,99.5 Z"/></g>
<g><path style="opacity:1" fill="#783170" d="M 49.5,117.5 C 50.658,120.989 51.9914,124.322 53.5,127.5C 54.3994,130.395 55.7328,133.062 57.5,135.5C 56.9033,135.735 56.5699,136.235 56.5,137C 62.3681,150.203 71.7014,160.203 84.5,167C 92.7565,170.964 101.09,174.631 109.5,178C 113.711,184.253 117.545,190.753 121,197.5C 123.932,202.373 127.265,202.706 131,198.5C 134.539,191.25 138.706,184.417 143.5,178C 158.731,173.885 172.398,166.885 184.5,157C 190.407,151.181 195.073,144.514 198.5,137C 198.43,136.235 198.097,135.735 197.5,135.5C 199.267,133.062 200.601,130.395 201.5,127.5C 203.009,124.322 204.342,120.989 205.5,117.5C 206.638,120.304 206.805,123.304 206,126.5C 203.818,136.861 199.485,146.195 193,154.5C 179.827,168.173 163.993,177.34 145.5,182C 141.526,188.784 137.693,195.618 134,202.5C 128.364,208.009 123.031,207.676 118,201.5C 114.375,193.744 109.875,186.577 104.5,180C 91.5801,176.374 79.9134,170.374 69.5,162C 55.7517,150.029 49.085,135.195 49.5,117.5 Z"/></g>
<g><path style="opacity:1" fill="#f9f1f8" d="M 90.5,126.5 C 90.8333,126.5 91.1667,126.5 91.5,126.5C 95.6344,127.485 99.9677,127.818 104.5,127.5C 104.334,131.846 104.501,136.179 105,140.5C 108.315,144.105 111.982,144.439 116,141.5C 117.309,136.934 117.809,132.267 117.5,127.5C 124.167,127.5 130.833,127.5 137.5,127.5C 137.334,131.514 137.501,135.514 138,139.5C 141.601,144.321 145.601,144.654 150,140.5C 150.499,136.179 150.666,131.846 150.5,127.5C 154.702,127.817 158.702,127.483 162.5,126.5C 163.167,126.5 163.833,126.5 164.5,126.5C 176.655,127.495 188.989,127.829 201.5,127.5C 200.601,130.395 199.267,133.062 197.5,135.5C 192.434,142.901 186.101,148.901 178.5,153.5C 144.5,153.5 110.5,153.5 76.5,153.5C 68.899,148.901 62.5656,142.901 57.5,135.5C 55.7328,133.062 54.3994,130.395 53.5,127.5C 66.0113,127.829 78.3446,127.495 90.5,126.5 Z"/></g>
<g><path style="opacity:1" fill="#6d2f66" d="M 57.5,135.5 C 62.5656,142.901 68.899,148.901 76.5,153.5C 85.8862,160.855 96.5529,165.521 108.5,167.5C 112.735,175.635 117.235,183.635 122,191.5C 125.294,194.311 128.294,193.978 131,190.5C 135.512,182.806 140.012,175.139 144.5,167.5C 157.139,165.739 168.473,161.072 178.5,153.5C 186.101,148.901 192.434,142.901 197.5,135.5C 198.097,135.735 198.43,136.235 198.5,137C 195.073,144.514 190.407,151.181 184.5,157C 172.398,166.885 158.731,173.885 143.5,178C 138.706,184.417 134.539,191.25 131,198.5C 127.265,202.706 123.932,202.373 121,197.5C 117.545,190.753 113.711,184.253 109.5,178C 101.09,174.631 92.7565,170.964 84.5,167C 71.7014,160.203 62.3681,150.203 56.5,137C 56.5699,136.235 56.9033,135.735 57.5,135.5 Z"/></g>
<g><path style="opacity:1" fill="#f2e0ef" d="M 108.5,167.5 C 120.5,167.5 132.5,167.5 144.5,167.5C 140.012,175.139 135.512,182.806 131,190.5C 128.294,193.978 125.294,194.311 122,191.5C 117.235,183.635 112.735,175.635 108.5,167.5 Z"/></g>
<g><path style="opacity:1" fill="#f5e8f3" d="M 76.5,153.5 C 110.5,153.5 144.5,153.5 178.5,153.5C 168.473,161.072 157.139,165.739 144.5,167.5C 132.5,167.5 120.5,167.5 108.5,167.5C 96.5529,165.521 85.8862,160.855 76.5,153.5 Z"/></g>
<g><path style="opacity:1" fill="#783270" d="M 150.5,109.5 C 150.5,111.167 150.5,112.833 150.5,114.5C 154.5,114.5 158.5,114.5 162.5,114.5C 168.415,117.42 169.081,121.42 164.5,126.5C 163.833,126.5 163.167,126.5 162.5,126.5C 150.389,126.619 146.389,120.952 150.5,109.5 Z"/></g>
<g><path style="opacity:1" fill="#702e68" d="M 118.5,114.5 C 124.5,114.5 130.5,114.5 136.5,114.5C 134.903,123.3 129.903,125.8 121.5,122C 119.623,119.874 118.623,117.374 118.5,114.5 Z"/></g>
<g><path style="opacity:1" fill="#75316d" d="M 104.5,109.5 C 108.622,121.581 104.289,127.248 91.5,126.5C 91.1667,126.5 90.8333,126.5 90.5,126.5C 86.083,121.523 86.7496,117.523 92.5,114.5C 96.5,114.5 100.5,114.5 104.5,114.5C 104.5,112.833 104.5,111.167 104.5,109.5 Z"/></g>
<g><path style="opacity:1" fill="#823b79" d="M 20.5,167.5 C 23.432,184.531 31.432,198.698 44.5,210C 62.2177,221.69 81.8844,227.69 103.5,228C 119.5,228.667 135.5,228.667 151.5,228C 163.715,227.29 175.715,225.29 187.5,222C 207.024,215.64 221.024,203.14 229.5,184.5C 230.689,183.571 232.022,183.238 233.5,183.5C 224.38,206.447 207.714,220.613 183.5,226C 147.571,232.935 111.571,233.268 75.5,227C 46.1453,221.31 27.312,204.143 19,175.5C 15.646,162.71 13.8127,149.71 13.5,136.5C 15.1644,135.051 15.9977,133.051 16,130.5C 16.1223,143.142 17.6223,155.475 20.5,167.5 Z"/></g>
</svg>
